<?xml version="1.0" standalone="no"?>
<!DOCTYPE svg PUBLIC "-//W3C//DTD SVG 20010904//EN"
 "http://www.w3.org/TR/2001/REC-SVG-20010904/DTD/svg10.dtd">
<svg version="1.0" xmlns="http://www.w3.org/2000/svg"
 width="500.000000pt" height="385.000000pt" viewBox="0 0 500.000000 385.000000"
 preserveAspectRatio="xMidYMid meet">

<g transform="translate(0.000000,385.000000) scale(0.100000,-0.100000)"
fill="#000000" stroke="none">
<path d="M2310 3664 c-393 -49 -736 -212 -1014 -483 -286 -279 -454 -607 -512
-1005 -20 -139 -15 -417 11 -551 10 -49 19 -91 20 -93 2 -2 44 9 94 23 100 29
144 27 162 -7 26 -48 59 -187 50 -210 -7 -18 1 -57 28 -151 l36 -128 29 5 c16
4 31 7 32 9 1 1 -20 93 -47 204 -36 152 -46 209 -39 227 5 13 7 26 4 28 -11
11 -44 194 -54 296 -19 203 21 457 103 649 131 309 362 556 659 707 206 104
393 149 628 149 180 1 290 -16 448 -69 274 -92 520 -271 689 -501 118 -160
220 -400 255 -603 18 -103 15 -363 -5 -470 -9 -47 -13 -88 -9 -92 4 -4 41 -16
82 -27 41 -11 109 -31 150 -44 54 -18 77 -22 81 -14 13 26 39 189 49 304 36
450 -123 920 -432 1271 -244 278 -593 478 -964 552 -85 18 -152 23 -304 25
-107 2 -211 1 -230 -1z m328 -80 c30 -9 28 -34 -3 -34 -16 0 -25 -6 -25 -15 0
-8 9 -15 20 -15 13 0 20 -7 20 -20 0 -15 -6 -19 -22 -17 -18 2 -24 -4 -26 -25
-2 -20 -9 -28 -23 -28 -16 0 -19 7 -19 43 0 23 3 59 6 80 7 39 20 45 72 31z
m-417 -61 c-6 -21 -11 -57 -11 -80 0 -36 -3 -43 -20 -43 -14 0 -20 7 -20 21 0
12 -16 41 -35 65 -19 23 -35 44 -35 47 0 3 9 7 20 10 14 3 26 -3 39 -21 l19
-26 6 31 c4 18 15 33 24 36 24 5 25 3 13 -40z m606 21 c21 -21 24 -32 19 -62
-11 -71 -94 -99 -135 -46 -28 36 -26 66 5 103 33 40 74 41 111 5z m161 -30
c28 -18 29 -59 3 -74 -19 -9 -19 -12 -5 -46 18 -42 17 -45 -14 -33 -14 5 -25
20 -28 39 -8 37 -20 39 -28 4 -5 -17 -12 -24 -24 -22 -20 4 -19 26 4 104 15
51 17 54 42 48 15 -4 37 -13 50 -20z m-918 -8 c0 -8 -9 -16 -20 -19 -19 -5
-19 -5 0 -61 17 -50 17 -58 4 -63 -20 -7 -26 0 -45 55 -13 37 -21 47 -37 45
-11 -1 -23 4 -26 12 -3 8 -4 15 -3 15 1 0 27 9 57 19 57 19 70 19 70 -3z m355
-16 c0 -31 -33 -40 -52 -14 -16 22 1 46 31 42 15 -2 21 -10 21 -28z m-493 -94
c23 -57 25 -68 12 -73 -20 -7 -25 0 -57 74 -18 44 -22 63 -14 67 23 9 31 -1
59 -68z m1293 30 c38 -16 38 -17 29 -40 -5 -14 -8 -14 -30 0 -29 20 -50 13
-66 -20 -13 -30 3 -56 34 -56 24 0 21 -33 -3 -38 -27 -5 -79 46 -79 77 0 41
34 81 78 90 1 1 18 -6 37 -13z m-1385 -56 c16 -33 30 -64 30 -69 0 -22 -34
-18 -80 9 l-50 30 20 -40 c24 -46 25 -60 6 -60 -8 0 -30 29 -49 65 -32 61 -34
66 -17 75 13 7 30 3 64 -16 48 -27 56 -23 30 14 -16 23 -13 52 6 52 5 0 23
-27 40 -60z m1547 -36 c20 -20 24 -32 19 -57 -3 -18 -17 -42 -32 -54 -75 -67
-168 36 -99 111 32 35 77 35 112 0z m-1728 -51 c17 -25 31 -55 31 -65 0 -27
-36 -58 -69 -58 -24 0 -36 10 -66 51 -29 40 -34 54 -23 60 19 13 20 12 56 -37
52 -71 86 -39 37 35 -25 36 -27 61 -5 61 4 0 22 -21 39 -47z m1861 -49 c0 -8
-7 -31 -15 -51 -8 -19 -15 -37 -15 -40 0 -2 19 9 43 25 42 29 43 30 65 11 l23
-18 -24 -28 c-14 -15 -36 -41 -49 -57 -19 -22 -28 -27 -41 -20 -15 9 -13 14
16 49 32 39 27 39 -25 3 -14 -10 -33 -15 -42 -12 -19 7 -19 2 -1 54 20 57 19
58 -14 16 -25 -31 -30 -34 -41 -21 -10 12 -4 24 35 70 40 47 49 53 66 45 10
-6 19 -17 19 -26z m-1966 -137 c-14 -8 -23 -3 -48 24 -18 20 -27 26 -22 14 25
-63 28 -77 18 -87 -8 -8 -21 -4 -47 11 -49 29 -54 27 -20 -9 23 -24 26 -33 16
-43 -10 -10 -22 -1 -62 41 -27 29 -49 56 -49 60 0 4 9 13 21 20 18 11 26 10
64 -12 l43 -26 -21 50 c-21 49 -21 50 -1 65 18 14 23 11 73 -42 47 -50 51 -57
35 -66z m2139 -5 c15 -16 15 -21 -8 -57 -13 -22 -25 -43 -25 -47 0 -4 20 2 45
14 45 22 45 22 65 2 20 -20 20 -20 -39 -71 -50 -44 -61 -50 -71 -38 -10 12 -6
19 19 41 40 33 34 40 -13 18 -29 -14 -39 -15 -49 -5 -9 9 -8 20 10 51 25 47
20 50 -19 13 -22 -21 -31 -24 -40 -15 -9 9 0 23 43 62 29 27 57 49 60 50 3 0
13 -8 22 -18z m-2343 -91 c43 -39 52 -52 43 -62 -10 -9 -20 -6 -49 16 -37 28
-37 24 -3 -26 12 -16 15 -30 9 -40 -8 -12 -16 -12 -57 3 l-48 17 34 -29 c24
-21 31 -32 24 -44 -7 -13 -17 -9 -63 29 -63 52 -65 54 -47 80 14 17 16 18 56
2 23 -10 44 -17 47 -17 2 0 -7 19 -20 43 -24 41 -25 44 -9 60 10 9 20 17 23
17 3 0 30 -22 60 -49z m2480 -113 c-12 -10 -33 -26 -47 -36 -17 -13 -24 -25
-20 -36 9 -23 33 -20 73 10 31 24 64 27 64 5 0 -16 -98 -73 -121 -69 -31 4
-63 50 -54 77 4 12 28 37 53 56 36 26 50 31 60 22 12 -9 10 -14 -8 -29z
m-2613 -71 c31 -28 36 -51 19 -85 -27 -52 -82 -57 -128 -12 -24 25 -29 36 -23
58 17 70 79 88 132 39z m2718 -123 c-33 -56 -32 -60 12 -34 29 17 38 18 44 8
5 -7 9 -15 9 -18 0 -5 -125 -70 -134 -70 -2 0 -7 7 -10 16 -4 10 5 35 19 60
32 55 32 58 -7 34 -39 -24 -54 -25 -62 -5 -4 11 13 25 62 49 60 31 68 33 79
19 11 -14 8 -24 -12 -59z m-2869 -5 c3 -6 1 -16 -5 -22 -20 -20 -13 -57 15
-69 23 -11 29 -10 44 10 10 12 20 28 22 34 6 17 28 0 28 -21 0 -35 -39 -71
-76 -71 -42 0 -84 37 -84 74 0 53 36 96 56 65z m2968 -115 c8 -21 11 -18 -57
-49 -68 -30 -87 -31 -87 -7 0 11 20 25 63 43 76 33 74 32 81 13z m48 -124 c14
-41 15 -56 6 -61 -15 -10 -28 -2 -28 17 0 17 4 17 -58 -1 -29 -9 -57 -13 -62
-10 -23 14 -7 32 43 46 38 12 52 21 53 35 2 32 4 36 16 32 6 -2 20 -28 30 -58z
m-3093 -14 c18 -19 44 -37 57 -40 14 -4 24 -14 24 -24 0 -15 -12 -17 -85 -19
-47 0 -85 0 -85 2 0 21 17 35 41 35 34 0 37 10 9 28 -22 14 -27 52 -7 52 7 0
28 -15 46 -34z m3128 -102 c4 -10 -4 -24 -23 -40 l-29 -23 32 -1 c23 0 33 -6
38 -21 4 -11 5 -22 3 -24 -2 -3 -26 2 -53 10 -28 9 -63 13 -82 9 -29 -5 -33
-3 -33 14 0 14 9 22 28 27 15 3 43 19 62 35 40 34 48 36 57 14z m-3172 -40
c12 -13 19 -14 30 -4 12 10 20 9 41 -5 23 -15 26 -21 20 -58 -11 -64 -2 -61
-114 -36 -53 11 -53 12 -47 43 8 36 31 76 45 76 4 0 16 -7 25 -16z m3144 -218
c23 -28 -17 -68 -45 -45 -17 14 -18 31 -2 47 16 16 33 15 47 -2z m-3115 -49
c9 -14 7 -21 -7 -32 -33 -24 -71 11 -46 42 15 18 39 13 53 -10z"/>
<path d="M2744 3516 c-3 -8 -4 -25 -2 -38 2 -17 9 -23 28 -23 22 0 25 4 25 35
0 29 -4 36 -23 38 -13 2 -24 -3 -28 -12z"/>
<path d="M2936 3485 c-6 -17 9 -29 24 -20 14 9 12 22 -4 28 -8 3 -17 -1 -20
-8z"/>
<path d="M3298 3296 c-14 -31 -4 -56 21 -56 25 0 54 41 45 64 -10 25 -53 20
-66 -8z"/>
<path d="M1123 2785 c-7 -19 24 -55 47 -55 10 0 23 7 30 15 10 13 10 19 -5 35
-21 24 -63 26 -72 5z"/>
<path d="M917 2253 c-12 -11 -8 -23 8 -23 8 0 15 7 15 15 0 16 -12 20 -23 8z"/>
<path d="M970 2235 c0 -8 7 -15 15 -15 8 0 15 7 15 15 0 8 -7 15 -15 15 -8 0
-15 -7 -15 -15z"/>
<path d="M2180 3244 c-6 -14 -13 -71 -16 -127 -7 -133 -14 -146 -67 -140 -30
3 -51 -2 -74 -16 -33 -21 -44 -55 -20 -65 18 -7 -21 -36 -39 -29 -12 4 -13 1
-3 -20 10 -22 8 -30 -11 -54 l-22 -28 28 -3 c16 -2 35 -8 42 -14 15 -13 16
-50 0 -66 -8 -8 -8 -15 2 -27 13 -15 15 -14 31 6 12 16 15 29 8 40 -5 10 -6
24 -3 32 3 8 -6 25 -20 38 -14 13 -26 29 -26 36 0 10 25 33 80 76 9 7 23 18
33 26 15 12 17 11 17 -4 0 -9 -9 -19 -20 -22 -27 -7 -26 -49 1 -63 16 -9 19
-17 14 -43 -10 -46 -65 -154 -92 -179 l-22 -21 -10 27 c-15 38 -51 36 -51 -3
0 -17 -4 -33 -10 -36 -5 -3 -10 -15 -10 -26 0 -10 -4 -19 -10 -19 -5 0 -10 6
-10 13 0 8 -11 24 -25 37 -14 13 -25 31 -25 40 0 27 42 60 68 53 17 -4 21 -2
16 10 -3 8 -1 18 5 22 17 10 13 22 -9 28 -25 6 -28 58 -4 78 14 12 14 14 -3
20 -10 3 -23 3 -29 -2 -15 -12 -73 6 -90 28 -13 17 -15 17 -29 -1 -8 -11 -11
-22 -7 -25 13 -9 22 -51 11 -51 -5 0 -21 7 -34 16 -15 9 -35 14 -47 11 -14 -4
-30 0 -43 12 -11 11 -37 28 -57 40 -36 19 -39 20 -67 3 -17 -9 -33 -27 -36
-40 -4 -17 -11 -22 -22 -18 -12 5 -14 1 -9 -19 5 -20 2 -27 -18 -37 -21 -9
-23 -14 -15 -30 9 -16 6 -25 -10 -42 -12 -12 -21 -25 -21 -29 0 -4 32 5 71 19
84 31 84 31 123 -69 25 -63 26 -72 16 -124 -11 -53 -11 -60 16 -114 15 -32 31
-56 35 -53 4 2 20 -11 34 -30 15 -20 39 -37 56 -41 16 -4 48 -23 72 -42 40
-34 42 -38 39 -83 -4 -55 8 -85 46 -117 26 -22 27 -25 25 -127 -2 -97 -1 -105
22 -126 26 -24 26 -24 40 46 3 17 25 51 48 76 23 24 56 61 73 81 l31 38 79
-20 c153 -37 175 -41 239 -41 61 0 65 -2 71 -25 8 -33 37 -32 71 1 18 18 33
24 49 21 13 -2 29 2 35 9 6 8 24 14 39 14 45 0 177 48 234 84 54 35 126 112
126 137 0 10 3 10 12 1 10 -10 10 -14 0 -21 -11 -6 -8 -15 12 -37 l25 -29 -1
35 c-1 19 -7 44 -14 55 -19 27 -17 38 6 32 10 -3 25 1 31 9 9 11 8 19 -6 34
-21 23 -21 23 26 43 29 12 37 21 41 48 3 19 1 47 -3 63 -5 16 -7 32 -4 34 9 9
37 -9 42 -28 8 -31 23 -23 17 9 -4 17 0 38 9 52 14 22 22 76 18 122 0 10 -9
17 -20 17 -31 0 -34 17 -11 55 15 24 29 35 45 35 17 0 25 6 27 23 2 14 10 22
23 22 18 0 20 -6 17 -50 -2 -34 2 -57 12 -70 15 -20 15 -20 17 5 0 14 0 37 -1
51 0 15 10 43 24 64 30 44 31 49 12 64 -14 12 -10 51 5 51 5 0 9 9 9 20 0 18
-7 20 -64 20 -36 0 -68 -5 -71 -10 -4 -7 -43 -10 -96 -9 -61 1 -94 -3 -105
-11 -10 -9 -41 -13 -87 -12 -67 1 -72 2 -70 22 2 14 -5 23 -21 29 -16 7 -27
23 -36 55 -7 26 -17 49 -21 52 -5 3 -9 35 -9 72 0 80 -16 182 -30 196 -13 13
-51 -23 -88 -82 -21 -33 -32 -42 -47 -38 -185 45 -234 46 -368 4 -32 -10 -40
-9 -47 3 -33 53 -87 119 -98 119 -7 0 -17 -12 -22 -26z m60 -86 c18 -30 18
-32 2 -44 -26 -20 -29 -17 -30 31 -1 25 1 45 4 45 2 0 13 -14 24 -32z m587
-13 c-2 -49 -4 -51 -31 -30 -18 13 -18 15 4 44 12 17 23 31 25 31 2 0 3 -20 2
-45z m-192 -27 c73 -16 160 -63 191 -103 30 -40 54 -126 54 -200 0 -66 22
-123 88 -225 91 -140 106 -181 106 -285 1 -81 -2 -95 -29 -143 -34 -63 -67
-93 -144 -131 -103 -52 -187 -66 -381 -66 -194 0 -278 14 -381 66 -77 38 -110
68 -144 131 -27 48 -30 62 -29 143 0 104 15 145 106 285 68 106 85 153 91 257
9 141 67 218 195 259 106 33 167 36 277 12z m-714 -741 c-8 -8 -11 -7 -11 4 0
9 3 19 7 23 4 4 9 2 11 -4 3 -7 -1 -17 -7 -23z m-8 -79 c2 -35 7 -72 11 -83 5
-15 0 -24 -22 -37 -29 -17 -29 -17 -67 22 -21 21 -47 40 -59 42 -43 6 -25 81
24 100 21 8 28 5 47 -19 l23 -28 0 27 c0 23 10 35 32 37 3 1 8 -27 11 -61z"/>
<path d="M2183 2854 c-15 -31 -16 -38 -3 -61 8 -14 23 -31 33 -37 43 -26 78
82 39 117 -29 26 -51 20 -69 -19z"/>
<path d="M2787 2872 c-37 -41 -5 -132 40 -118 11 4 27 20 33 37 11 26 10 36
-3 65 -19 38 -45 44 -70 16z"/>
<path d="M2391 2777 c-23 -12 -57 -42 -75 -66 l-31 -43 -3 -276 c-4 -308 -2
-316 62 -360 33 -22 41 -23 183 -20 129 3 151 6 175 23 58 43 60 54 56 357
l-3 276 -31 43 c-48 66 -100 88 -204 88 -68 0 -94 -4 -129 -22z m245 -53 c65
-48 66 -51 68 -290 l1 -219 -51 2 c-79 3 -104 16 -104 56 0 18 -7 42 -15 53
-15 19 -15 19 -30 0 -8 -11 -15 -35 -15 -53 0 -40 -27 -54 -105 -57 l-50 -1 0
205 c-1 113 3 216 8 230 11 34 45 70 82 86 46 22 176 14 211 -12z m-98 -552
c3 -17 -2 -22 -17 -22 -14 0 -21 6 -21 18 0 38 33 41 38 4z"/>
<path d="M2382 2608 c-46 -22 -37 -113 11 -106 18 2 22 9 20 33 l-2 29 37 -43
c53 -61 90 -62 143 -2 38 42 38 42 36 14 -3 -39 37 -46 54 -9 17 36 4 71 -30
85 -35 15 -57 4 -89 -45 -28 -43 -54 -43 -83 -1 -41 57 -56 64 -97 45z"/>
<path d="M1850 2875 c0 -8 7 -15 15 -15 8 0 15 4 15 9 0 5 -7 11 -15 15 -9 3
-15 0 -15 -9z"/>
<path d="M3191 2133 c-22 -18 -22 -19 -3 -36 17 -16 20 -16 32 -2 9 11 10 22
4 36 -9 20 -10 20 -33 2z"/>
<path d="M3355 2075 c17 -14 39 -25 51 -25 11 0 25 -5 32 -12 7 -7 12 -8 12
-2 0 21 -46 51 -85 57 l-40 6 30 -24z"/>
<path d="M3252 1978 l-62 -32 0 -55 0 -54 38 8 c75 15 85 12 111 -28 21 -32
30 -37 55 -35 27 3 31 8 47 65 l17 63 -25 50 c-25 50 -37 61 -46 38 -3 -10 -9
-10 -26 0 -30 17 -40 16 -109 -20z"/>
<path d="M3540 1841 c-10 -20 -14 -59 -5 -49 7 7 25 68 20 68 -3 0 -9 -9 -15
-19z"/>
<path d="M2169 1693 c-26 -4 -26 -5 -38 -141 -6 -75 -17 -215 -23 -309 -9
-139 -15 -173 -26 -173 -11 0 -13 -9 -8 -37 3 -21 6 -53 6 -71 l0 -33 73 7
c39 3 74 8 76 10 2 2 0 33 -4 69 -4 41 -11 65 -19 65 -8 0 -11 10 -8 30 4 30
6 31 51 28 42 -3 46 -5 49 -30 2 -16 -1 -28 -7 -28 -7 0 -11 -27 -11 -70 l0
-70 38 0 c20 0 54 3 75 6 l37 7 0 63 c0 44 -4 65 -14 71 -10 5 -29 93 -60 278
-25 149 -48 285 -52 303 -6 31 -8 32 -58 31 -28 -1 -63 -4 -77 -6z m96 -390
c5 -20 1 -23 -24 -23 l-30 0 5 58 c3 31 8 73 11 92 5 32 7 30 19 -35 7 -38 16
-80 19 -92z"/>
<path d="M2480 1630 c0 -55 3 -70 15 -70 13 0 14 -30 8 -232 -5 -180 -9 -235
-19 -241 -10 -5 -14 -29 -14 -71 l0 -63 53 -7 c28 -3 93 -6 143 -6 l91 0 7 46
c3 26 6 71 6 100 l0 54 -44 0 c-41 0 -45 -2 -51 -30 -6 -27 -11 -30 -42 -30
l-36 0 6 152 c4 83 7 190 7 238 0 79 2 88 20 93 17 4 20 14 20 71 l0 66 -85 0
-85 0 0 -70z"/>
<path d="M1815 1663 c-16 -2 -38 -14 -47 -26 -16 -20 -18 -20 -18 -4 0 17 -6
18 -62 12 -35 -4 -67 -10 -71 -12 -5 -3 -6 -26 -2 -52 9 -66 15 -81 31 -81 8
0 14 -3 14 -7 0 -5 6 -46 14 -93 49 -288 58 -363 46 -370 -13 -8 -4 -127 11
-136 5 -3 58 2 119 11 61 8 115 15 119 15 5 0 21 20 35 44 26 44 26 44 15 157
-9 95 -15 119 -35 146 -25 32 -25 33 -6 68 16 33 17 45 6 152 -11 116 -12 117
-48 150 -36 33 -49 36 -121 26z m60 -145 c2 -7 6 -45 10 -84 l6 -72 -47 -7
c-25 -3 -50 -3 -54 2 -5 4 -11 43 -15 85 l-7 77 38 4 c22 2 45 4 52 5 7 1 14
-4 17 -10z m36 -320 c0 -13 4 -49 8 -82 8 -63 9 -61 -51 -69 -41 -6 -42 -5
-54 100 -6 59 -5 61 17 66 61 11 79 8 80 -15z"/>
<path d="M2986 1659 c-8 -23 -113 -459 -127 -526 -7 -35 -18 -63 -25 -63 -12
0 -24 -52 -24 -106 l0 -32 68 -4 c37 -3 69 -4 70 -2 2 1 6 30 9 64 4 43 2 64
-6 69 -8 5 -10 18 -5 34 5 22 12 27 39 27 18 0 40 -3 49 -6 20 -8 22 -64 2
-64 -9 0 -15 -18 -20 -52 -10 -89 -13 -85 60 -92 37 -4 68 -5 71 -3 10 11 22
122 13 127 -5 3 -12 137 -16 315 -3 171 -7 311 -8 312 0 1 -34 5 -73 8 -58 6
-74 5 -77 -6z m63 -371 c1 -36 -1 -38 -29 -38 -16 0 -30 4 -30 10 0 5 10 49
23 97 l22 88 6 -60 c4 -33 7 -77 8 -97z"/>
<path d="M3335 1617 c-2 -6 -11 -49 -18 -95 -16 -92 -17 -91 47 -95 35 -2 40
1 46 23 4 18 12 24 26 22 10 -2 21 -5 22 -7 2 -2 -51 -112 -117 -244 -110
-222 -150 -315 -138 -328 3 -2 61 -15 128 -29 87 -17 125 -20 130 -13 4 6 14
47 24 91 18 85 15 97 -27 98 -9 0 -23 3 -31 6 -11 4 -17 -4 -22 -25 -7 -33 -8
-34 -43 -25 -22 6 -20 11 57 158 43 83 104 196 136 251 34 60 57 113 58 134
l2 35 -105 21 c-58 12 -120 25 -138 28 -22 5 -34 3 -37 -6z"/>
<path d="M1445 1605 c-5 -2 -44 -11 -86 -20 -74 -15 -77 -17 -101 -61 l-25
-45 69 -287 70 -287 39 -36 39 -36 85 17 c47 10 87 19 89 21 2 2 13 23 24 45
l21 41 -35 199 c-19 110 -41 242 -50 294 -16 93 -17 96 -59 128 -39 30 -55 35
-80 27z m75 -379 c34 -177 39 -220 29 -227 -15 -9 -89 -23 -93 -17 -2 1 -26
105 -53 231 l-49 227 35 9 c62 16 76 17 82 6 4 -5 25 -108 49 -229z"/>
<path d="M3667 1498 c-12 -53 -12 -65 -1 -74 14 -11 14 -9 -89 -435 l-24 -97
22 -43 c21 -41 25 -43 104 -65 l81 -22 39 29 c37 27 42 37 85 171 24 79 60
193 79 253 26 82 39 110 51 109 13 -2 36 53 49 121 2 12 -145 57 -154 47 -4
-4 -14 -31 -22 -61 -14 -47 -14 -56 -2 -65 12 -9 4 -47 -50 -235 -36 -124 -66
-226 -68 -227 -4 -4 -91 18 -100 25 -4 4 19 108 52 232 43 165 62 225 74 227
10 2 22 25 31 57 24 80 29 72 -64 95 -25 6 -53 13 -62 16 -13 4 -19 -8 -31
-58z"/>
<path d="M922 1475 c-41 -13 -75 -25 -78 -27 -2 -3 6 -32 17 -66 14 -43 26
-62 37 -62 23 0 160 -434 143 -454 -14 -16 26 -139 43 -133 6 2 63 19 126 36
63 18 120 34 127 36 8 3 5 30 -12 95 -13 50 -25 94 -28 96 -3 3 -24 0 -47 -6
-38 -10 -41 -13 -38 -42 3 -27 -1 -32 -27 -39 -16 -5 -32 -5 -36 -1 -3 4 -34
105 -69 225 -51 176 -61 220 -50 227 11 7 10 20 -4 74 -10 36 -21 66 -25 65
-3 0 -39 -11 -79 -24z"/>
<path d="M732 1413 c-33 -12 -43 -19 -39 -33 4 -15 1 -16 -22 -7 -21 8 -39 5
-81 -10 -49 -19 -55 -24 -73 -71 l-19 -50 100 -248 c56 -137 105 -261 111
-276 6 -15 29 -39 53 -54 l43 -27 82 28 83 29 16 48 16 48 -58 173 c-31 94
-58 173 -59 175 -2 2 -83 -25 -137 -47 l-27 -10 24 -63 c13 -35 27 -62 32 -61
5 1 20 4 34 8 24 6 26 2 52 -71 15 -42 26 -78 25 -79 -16 -9 -93 -34 -96 -31
-2 3 -39 96 -82 208 -43 112 -81 210 -84 218 -5 11 6 20 43 33 58 20 71 21 71
5 1 -33 15 -38 63 -22 26 9 47 18 47 20 0 5 -38 121 -52 157 -12 31 -9 30 -66
10z"/>
<path d="M4102 1370 c-17 -51 -18 -61 -6 -68 12 -7 1 -49 -62 -236 -55 -162
-80 -226 -90 -222 -8 3 -19 -15 -32 -57 -10 -34 -18 -63 -17 -64 0 -1 31 -14
67 -27 l66 -25 21 61 c14 42 18 65 11 73 -7 8 -1 36 17 89 25 69 43 90 57 68
4 -8 -4 -120 -20 -263 l-6 -56 42 -17 c24 -9 46 -13 51 -9 4 4 17 31 28 60 18
47 19 53 5 61 -14 8 -15 22 -9 96 l7 87 52 33 c49 32 53 37 102 157 l51 124
-17 50 c-15 46 -20 51 -72 71 -35 13 -61 18 -69 13 -22 -14 -37 -11 -35 7 1
14 -79 54 -110 54 -6 0 -20 -27 -32 -60z m185 -135 l32 -13 -30 -79 c-17 -42
-32 -79 -33 -80 -2 -2 -18 3 -37 10 -19 8 -42 17 -51 20 -16 6 -15 12 8 74 13
37 27 74 29 81 5 14 22 11 82 -13z"/>
<path d="M4515 1223 c-29 -64 -30 -70 -12 -76 8 -2 -18 -74 -83 -225 -65 -153
-99 -220 -108 -217 -8 3 -22 -15 -38 -50 -30 -68 -30 -72 -1 -81 12 -4 72 -30
133 -59 l111 -52 41 84 c23 46 42 85 42 88 0 3 -18 14 -40 25 l-40 21 -12 -26
c-13 -29 -22 -30 -65 -7 l-32 17 37 77 37 77 63 -29 62 -29 31 61 c17 33 29
61 27 62 -2 1 -31 15 -65 31 -35 16 -63 29 -63 30 0 1 16 36 35 78 l35 76 43
-18 c25 -11 41 -24 38 -32 -2 -8 -6 -22 -8 -31 -4 -12 7 -23 36 -37 22 -12 43
-21 45 -21 7 0 86 156 86 168 0 8 -184 100 -273 136 l-38 15 -24 -56z"/>
<path d="M390 1242 c-19 -9 -36 -17 -38 -18 -2 -1 7 -43 21 -94 l24 -91 -35
-14 c-19 -8 -36 -15 -37 -15 -2 0 -13 37 -25 83 -12 45 -24 85 -26 89 -7 11
-74 -24 -74 -38 0 -11 34 -126 47 -160 3 -10 -10 -21 -41 -35 -25 -11 -46 -24
-46 -30 0 -5 9 -28 20 -49 l20 -40 39 20 39 20 23 -67 c21 -63 21 -67 4 -79
-10 -7 -23 -15 -29 -17 -7 -2 -4 -18 8 -46 23 -50 30 -55 54 -42 17 9 21 3 36
-47 10 -31 24 -72 32 -90 13 -33 13 -33 44 -17 16 8 30 19 30 24 0 4 -11 41
-25 81 -14 40 -25 79 -25 85 0 11 41 35 59 35 4 0 18 -35 31 -77 12 -43 25
-81 29 -86 6 -6 72 10 71 16 0 1 -11 38 -25 82 -14 44 -25 85 -25 91 0 6 18
19 40 29 22 10 40 22 40 26 0 12 -31 89 -36 89 -3 0 -20 -7 -40 -15 -39 -16
-35 -21 -57 67 l-15 57 29 11 c16 7 29 14 29 15 0 2 -9 24 -20 49 -17 41 -22
46 -44 40 -23 -5 -25 -2 -41 73 -23 104 -23 104 -65 85z m54 -370 c9 -32 16
-63 16 -69 0 -10 -58 -39 -64 -32 -2 2 -12 32 -23 67 l-20 63 26 14 c41 23 47
18 65 -43z"/>
<path d="M1665 801 c-15 -13 -215 -53 -232 -46 -9 3 -23 -1 -32 -8 -9 -8 -41
-20 -71 -27 l-54 -13 34 -30 c125 -106 165 -137 245 -190 575 -378 1343 -374
1917 10 88 59 242 183 235 189 -2 3 -37 14 -78 25 -41 11 -83 29 -95 40 -16
15 -26 18 -45 10 -17 -6 -50 -3 -106 9 -74 16 -84 16 -104 2 -45 -31 -167 -95
-244 -127 -414 -173 -931 -122 -1297 126 -64 44 -60 42 -73 30z m598 -330 c52
-20 46 -81 -11 -110 l-37 -19 38 -7 c33 -6 37 -10 31 -29 -4 -11 -7 -22 -8
-22 0 -1 -29 3 -63 9 -45 7 -63 14 -63 25 0 16 65 82 81 82 5 0 9 7 9 15 0 10
-10 15 -30 15 -31 0 -39 17 -18 38 14 14 38 15 71 3z m543 -41 c4 -30 12 -50
19 -50 19 0 28 -33 12 -45 -7 -5 -12 -15 -10 -21 6 -18 -48 -24 -54 -7 -5 11
-16 14 -44 9 -36 -6 -39 -4 -39 16 0 13 12 51 27 86 24 54 31 62 55 62 25 0
28 -4 34 -50z m-347 4 c33 -42 21 -132 -19 -154 -63 -34 -121 23 -106 104 14
73 85 101 125 50z m165 10 c25 -24 20 -69 -9 -92 -33 -26 -32 -33 5 -25 27 5
30 3 30 -20 0 -30 -16 -37 -81 -37 -47 0 -49 1 -49 28 0 18 11 38 30 57 17 16
30 35 30 42 0 16 -32 17 -47 2 -7 -7 -12 -3 -15 16 -4 17 0 29 11 35 25 15 78
12 95 -6z"/>
<path d="M2746 375 c-3 -8 -1 -15 4 -15 6 0 10 7 10 15 0 8 -2 15 -4 15 -2 0
-6 -7 -10 -15z"/>
<path d="M2396 394 c-9 -24 -7 -72 3 -78 12 -8 21 18 21 60 0 35 -13 46 -24
18z"/>
</g>
</svg>
